<?xml version="1.0" encoding="UTF-8" standalone="no"?><!-- Generator: Gravit.io --><svg xmlns="http://www.w3.org/2000/svg" xmlns:xlink="http://www.w3.org/1999/xlink" style="isolation:isolate" viewBox="0 0 40 60" width="40pt" height="60pt"><defs><clipPath id="_clipPath_Vlw97Q8RuVJUulZE00bpzAWAqP7AfLta"><rect width="40" height="60"/></clipPath></defs><g clip-path="url(#_clipPath_Vlw97Q8RuVJUulZE00bpzAWAqP7AfLta)"><path d=" M 20 12.5 C 10.335 12.5 2.5 20.335 2.5 30 C 2.5 39.665 10.335 47.5 20 47.5 C 29.665 47.5 37.5 39.665 37.5 30 C 37.5 20.335 29.665 12.5 20 12.5 Z  M 18.845 20.239 C 22.042 20.203 25.212 21.893 26.764 25.058 C 28.089 27.759 28.044 30.322 26.621 33.29 C 25.925 34.741 25.911 34.836 26.269 35.591 C 26.581 36.25 27.33 36.727 28.05 36.727 C 28.712 36.727 29.727 35.873 29.876 35.19 C 30.022 34.528 29.594 33.56 28.991 33.182 C 28.797 33.063 28.606 32.939 28.418 32.81 C 28.229 32.664 29.03 32.256 29.498 32.256 C 30.5 32.256 31.317 33.023 31.503 34.137 C 31.584 34.623 31.699 34.753 32.145 34.869 C 33.398 35.193 34.036 36.985 33.246 37.955 C 32.925 38.349 32.911 38.35 32.801 38.016 C 32.412 36.848 31.83 36.383 30.755 36.383 C 30.29 36.383 29.921 36.57 29.154 37.194 C 27.687 38.39 26.433 39.094 24.915 39.574 C 23.054 40.134 20.901 40.271 18.956 39.801 C 15.803 39.173 12.784 36.724 11.297 33.593 C 9.439 29.682 9.989 25.625 12.756 22.821 C 14.363 21.187 16.553 20.258 18.845 20.239 Z " fill="rgb(255,255,255)"/></g></svg>